# xmcd
#
# Track frame offsets:
#	150
#	24170
#	46367
#	66117
#	82305
#	101297
#	125015
#	142407
#
# Disc length: 2160 seconds
#
# Revision: 1
# Processed by: cddbd v1.5.2PL0 Copyright (c) Steve Scherf et al.
# Submitted via: audiograbber 1.83.01
#
DISCID=70086e08
DTITLE=Tollhouse - Tollhouse (Digitally Remastered)
DYEAR=1978
DGENRE=Rock
TTITLE0=I Like It (Digitally Remastered)
TTITLE1=Good-Bye (Digitally Remastered)
TTITLE2=Money (Digitally Remastered)
TTITLE3=Johnny (Digitally Remastered)
TTITLE4=It's Hard To Live (Digitally Remastered)
TTITLE5=Pictures (Digitally Remastered)
TTITLE6=Fire (Digitally Remastered)
TTITLE7=Madan's Creek (Digitally Remastered)
EXTD=
EXTT0=
EXTT1=
EXTT2=
EXTT3=
EXTT4=
EXTT5=
EXTT6=
EXTT7=
PLAYORDER=
